<svg width="474" height="112" viewBox="0 0 474 112" fill="none" xmlns="http://www.w3.org/2000/svg">
<rect x="41.3333" y="32.6667" width="15.6667" height="62" rx="7.83333" fill="#8B5CF6"/>
<rect x="60" y="42.6667" width="16" height="52" rx="8" fill="#6D3FD4"/>
<rect x="79.6667" y="26" width="16" height="68.6667" rx="8" fill="#8B5CF6"/>
<rect x="22" y="53.3333" width="15.6667" height="41.3333" rx="7.83333" fill="#6334B4"/>
<rect x="6" y="6" width="7.66667" height="100" rx="3.83333" fill="white"/>
<rect width="100" height="8.33333" rx="4.16667" transform="matrix(1 0 0 -1 6 106)" fill="white"/>
<path d="M123.224 86V41.2H131.672V78.32H152.152V86H123.224ZM158.168 86V54.256H166.232V86H158.168ZM162.2 50.544C160.749 50.544 159.512 50.0747 158.488 49.136C157.506 48.1973 157.016 46.96 157.016 45.424C157.016 43.888 157.506 42.6507 158.488 41.712C159.512 40.7733 160.749 40.304 162.2 40.304C163.693 40.304 164.93 40.7733 165.912 41.712C166.893 42.6507 167.384 43.888 167.384 45.424C167.384 46.96 166.893 48.1973 165.912 49.136C164.93 50.0747 163.693 50.544 162.2 50.544ZM181.824 86L171.712 54.256H180.288L187.648 80.112H188.8L196.16 54.256H204.736L194.624 86H181.824ZM223.757 86.896C220.599 86.896 217.805 86.2347 215.373 84.912C212.983 83.5467 211.106 81.648 209.741 79.216C208.418 76.7413 207.757 73.84 207.757 70.512V69.744C207.757 66.416 208.418 63.536 209.741 61.104C211.063 58.6293 212.919 56.7307 215.309 55.408C217.698 54.0427 220.471 53.36 223.628 53.36C226.743 53.36 229.453 54.064 231.757 55.472C234.061 56.8373 235.853 58.7573 237.132 61.232C238.413 63.664 239.053 66.5013 239.053 69.744V72.496H215.949C216.034 74.672 216.845 76.4427 218.381 77.808C219.917 79.1733 221.794 79.856 224.013 79.856C226.274 79.856 227.938 79.3653 229.005 78.384C230.071 77.4027 230.882 76.3147 231.437 75.12L238.029 78.576C237.431 79.6853 236.557 80.9013 235.405 82.224C234.295 83.504 232.802 84.6133 230.925 85.552C229.047 86.448 226.658 86.896 223.757 86.896ZM216.013 66.48H230.861C230.69 64.6453 229.943 63.1733 228.621 62.064C227.341 60.9547 225.655 60.4 223.565 60.4C221.389 60.4 219.661 60.9547 218.381 62.064C217.101 63.1733 216.311 64.6453 216.013 66.48ZM261.462 86.896C258.39 86.896 255.595 86.2133 253.078 84.848C250.603 83.44 248.619 81.4133 247.126 78.768C245.675 76.08 244.95 72.816 244.95 68.976V58.224C244.95 52.464 246.571 48.048 249.814 44.976C253.057 41.8613 257.451 40.304 262.998 40.304C268.502 40.304 272.747 41.776 275.734 44.72C278.763 47.6213 280.278 51.568 280.278 56.56V56.816H271.958V56.304C271.958 54.7253 271.617 53.296 270.934 52.016C270.294 50.736 269.313 49.7333 267.99 49.008C266.667 48.24 265.003 47.856 262.998 47.856C260.011 47.856 257.665 48.7733 255.958 50.608C254.251 52.4427 253.398 54.9387 253.398 58.096V69.104C253.398 72.2187 254.251 74.736 255.958 76.656C257.665 78.5333 260.054 79.472 263.126 79.472C266.198 79.472 268.438 78.6613 269.846 77.04C271.254 75.4187 271.958 73.3707 271.958 70.896V70.256H261.334V63.088H280.278V86H272.47V81.712H271.318C271.019 82.4373 270.529 83.2053 269.846 84.016C269.206 84.8267 268.225 85.5093 266.902 86.064C265.579 86.6187 263.766 86.896 261.462 86.896ZM288.605 86V54.256H296.541V57.84H297.693C298.162 56.56 298.93 55.6213 299.997 55.024C301.106 54.4267 302.386 54.128 303.837 54.128H307.677V61.296H303.709C301.661 61.296 299.976 61.8507 298.653 62.96C297.33 64.0267 296.669 65.6907 296.669 67.952V86H288.605ZM327.959 86.896C324.802 86.896 321.964 86.256 319.447 84.976C316.93 83.696 314.946 81.84 313.495 79.408C312.044 76.976 311.319 74.0533 311.319 70.64V69.616C311.319 66.2027 312.044 63.28 313.495 60.848C314.946 58.416 316.93 56.56 319.447 55.28C321.964 54 324.802 53.36 327.959 53.36C331.116 53.36 333.954 54 336.471 55.28C338.988 56.56 340.972 58.416 342.423 60.848C343.874 63.28 344.599 66.2027 344.599 69.616V70.64C344.599 74.0533 343.874 76.976 342.423 79.408C340.972 81.84 338.988 83.696 336.471 84.976C333.954 86.256 331.116 86.896 327.959 86.896ZM327.959 79.728C330.434 79.728 332.482 78.9387 334.103 77.36C335.724 75.7387 336.535 73.4347 336.535 70.448V69.808C336.535 66.8213 335.724 64.5387 334.103 62.96C332.524 61.3387 330.476 60.528 327.959 60.528C325.484 60.528 323.436 61.3387 321.815 62.96C320.194 64.5387 319.383 66.8213 319.383 69.808V70.448C319.383 73.4347 320.194 75.7387 321.815 77.36C323.436 78.9387 325.484 79.728 327.959 79.728ZM364.139 86.512C361.664 86.512 359.488 85.9573 357.611 84.848C355.776 83.696 354.347 82.1173 353.323 80.112C352.299 78.1067 351.786 75.8027 351.786 73.2V54.256H359.851V72.56C359.851 74.9493 360.427 76.7413 361.579 77.936C362.773 79.1307 364.459 79.728 366.635 79.728C369.109 79.728 371.029 78.9173 372.395 77.296C373.76 75.632 374.443 73.328 374.443 70.384V54.256H382.507V86H374.571V81.84H373.419C372.907 82.9067 371.947 83.952 370.539 84.976C369.131 86 366.997 86.512 364.139 86.512ZM391.48 86V54.256H399.416V58.416H400.568C401.08 57.3067 402.04 56.2613 403.448 55.28C404.856 54.256 406.989 53.744 409.848 53.744C412.323 53.744 414.477 54.32 416.312 55.472C418.189 56.5813 419.64 58.1387 420.664 60.144C421.688 62.1067 422.2 64.4107 422.2 67.056V86H414.136V67.696C414.136 65.3067 413.539 63.5147 412.344 62.32C411.192 61.1253 409.528 60.528 407.352 60.528C404.877 60.528 402.957 61.36 401.592 63.024C400.227 64.6453 399.544 66.928 399.544 69.872V86H391.48ZM443.718 86.896C441.2 86.896 438.832 86.2773 436.614 85.04C434.438 83.76 432.688 81.904 431.366 79.472C430.043 77.04 429.382 74.096 429.382 70.64V69.616C429.382 66.16 430.043 63.216 431.366 60.784C432.688 58.352 434.438 56.5173 436.614 55.28C438.79 54 441.158 53.36 443.718 53.36C445.638 53.36 447.238 53.5947 448.518 54.064C449.84 54.4907 450.907 55.0453 451.718 55.728C452.528 56.4107 453.147 57.136 453.574 57.904H454.726V41.2H462.79V86H454.854V82.16H453.702C452.976 83.3547 451.846 84.4427 450.31 85.424C448.816 86.4053 446.619 86.896 443.718 86.896ZM446.15 79.856C448.624 79.856 450.694 79.0667 452.358 77.488C454.022 75.8667 454.854 73.52 454.854 70.448V69.808C454.854 66.736 454.022 64.4107 452.358 62.832C450.736 61.2107 448.667 60.4 446.15 60.4C443.675 60.4 441.606 61.2107 439.942 62.832C438.278 64.4107 437.446 66.736 437.446 69.808V70.448C437.446 73.52 438.278 75.8667 439.942 77.488C441.606 79.0667 443.675 79.856 446.15 79.856Z" fill="white"/>
</svg>
