<?xml version="1.0" encoding="utf-8"?>
<!-- Uploaded to: SVG Repo, www.svgrepo.com, Generator: SVG Repo Mixer Tools -->
<svg width="800px" height="800px" viewBox="0 0 128 128" xmlns="http://www.w3.org/2000/svg" xmlns:xlink="http://www.w3.org/1999/xlink" aria-hidden="true" role="img" class="iconify iconify--noto" preserveAspectRatio="xMidYMid meet">
<path d="M3.16 33.47v65.27c0 1.11.9 2.02 2.02 2.02h115.96c1.11 0 2.02-.9 2.02-2.02V33.47c0-1.11-.9-2.02-2.02-2.02H5.18c-1.12 0-2.02.91-2.02 2.02zm83.01 62.81c-5.57 3.57-11.49-2.34-7.91-7.91c.24-.38.56-.7.94-.94c5.57-3.57 11.49 2.34 7.91 7.91c-.25.38-.57.7-.94.94zm0-16.83c-5.57 3.57-11.49-2.34-7.91-7.91c.24-.38.56-.7.94-.94c5.57-3.57 11.49 2.34 7.91 7.91c-.25.37-.57.7-.94.94zm0-17.83c-5.57 3.57-11.49-2.34-7.91-7.91c.24-.38.56-.7.94-.94c5.57-3.57 11.49 2.34 7.91 7.91c-.25.37-.57.7-.94.94zm0-16.83c-5.57 3.57-11.49-2.34-7.91-7.91c.24-.38.56-.7.94-.94c5.57-3.57 11.49 2.34 7.91 7.91c-.25.37-.57.7-.94.94z" fill="#a65f3e">
</path>
<path d="M3.16 30.47v65.27c0 1.11.9 2.02 2.02 2.02h115.96c1.11 0 2.02-.9 2.02-2.02V30.47c0-1.11-.9-2.02-2.02-2.02H5.18c-1.12 0-2.02.91-2.02 2.02zm83.01 62.81c-5.57 3.57-11.49-2.34-7.91-7.91c.24-.38.56-.7.94-.94c5.57-3.57 11.49 2.34 7.91 7.91c-.25.38-.57.7-.94.94zm0-16.83c-5.57 3.57-11.49-2.34-7.91-7.91c.24-.38.56-.7.94-.94c5.57-3.57 11.49 2.34 7.91 7.91c-.25.37-.57.7-.94.94zm0-17.83c-5.57 3.57-11.49-2.34-7.91-7.91c.24-.38.56-.7.94-.94c5.57-3.57 11.49 2.34 7.91 7.91c-.25.37-.57.7-.94.94zm0-16.83c-5.57 3.57-11.49-2.34-7.91-7.91c.24-.38.56-.7.94-.94c5.57-3.57 11.49 2.34 7.91 7.91c-.25.37-.57.7-.94.94z" fill="#ffd54f">
</path>
<g opacity=".8" fill="none" stroke="#4e342e" stroke-width="8" stroke-linecap="round" stroke-miterlimit="10">
<path d="M15.06 51.03h32.56">
</path>
<path d="M15.06 66.51h23.07">
</path>
<path d="M54.09 66.51h4.84">
</path>
</g>
<g opacity=".5">
<path fill="#6d4c41" d="M13.56 80.46h3v9.3h-3z">
</path>
<path fill="#6d4c41" d="M38.71 80.46h3v9.3h-3z">
</path>
<path fill="#6d4c41" d="M44.15 80.46h3v9.3h-3z">
</path>
<path fill="#6d4c41" d="M19.47 80.46h6v9.3h-6z">
</path>
<path fill="#6d4c41" d="M49.66 80.46h7v9.3h-7z">
</path>
<path fill="#6d4c41" d="M28.14 80.46h8v9.3h-8z">
</path>
</g>
<path d="M122.04 28.45H4.27c-.62 0-1.11.5-1.11 1.11v9.96h74.45c-.72-1.67-.64-3.77.76-5.82c.19-.28.44-.53.72-.72c4.42-2.93 9.1.17 9.1 4.36c0 .77-.16 1.51-.45 2.17h35.41v-9.96c.01-.6-.49-1.1-1.11-1.1z" fill="#e2a610">
</path>
<path opacity=".5" fill="#6d4c41" d="M97.81 48.68h18.23v16.69H97.81z">
</path>
<path opacity=".8" fill="none" stroke="#4e342e" stroke-width="3" stroke-linecap="round" stroke-miterlimit="10" d="M98.98 74.14h9.07">
</path>
<path opacity=".8" fill="none" stroke="#4e342e" stroke-width="3" stroke-linecap="round" stroke-miterlimit="10" d="M98.98 80.46h14.28">
</path>
</svg>